<?xml version="1.0" encoding="UTF-8" standalone="no"?>
<svg
   xmlns:dc="http://purl.org/dc/elements/1.1/"
   xmlns:cc="http://creativecommons.org/ns#"
   xmlns:rdf="http://www.w3.org/1999/02/22-rdf-syntax-ns#"
   xmlns:svg="http://www.w3.org/2000/svg"
   xmlns="http://www.w3.org/2000/svg"
   xmlns:sodipodi="http://sodipodi.sourceforge.net/DTD/sodipodi-0.dtd"
   xmlns:inkscape="http://www.inkscape.org/namespaces/inkscape"
   version="1.1"
   id="svg44"
   xml:space="preserve"
   width="1278.6667"
   height="860"
   viewBox="0 0 1278.6667 860"
   sodipodi:docname="piechart.svg"
   inkscape:version="1.0 (4035a4f, 2020-05-01)"><metadata
     id="metadata50"><rdf:RDF><cc:Work
         rdf:about=""><dc:format>image/svg+xml</dc:format><dc:type
           rdf:resource="http://purl.org/dc/dcmitype/StillImage" /><dc:title></dc:title></cc:Work></rdf:RDF></metadata><defs
     id="defs48"><clipPath
       clipPathUnits="userSpaceOnUse"
       id="clipPath76"><path
         d="M 327.34,323 H 632.67 V 628.33 H 327.34 Z"
         id="path74" /></clipPath><clipPath
       clipPathUnits="userSpaceOnUse"
       id="clipPath208"><path
         d="M 338.81,22.95 H 621.19 V 305.33 H 338.81 Z"
         id="path206" /></clipPath></defs><sodipodi:namedview
     inkscape:document-rotation="0"
     pagecolor="#ffffff"
     bordercolor="#666666"
     borderopacity="1"
     objecttolerance="10"
     gridtolerance="10"
     guidetolerance="10"
     inkscape:pageopacity="0"
     inkscape:pageshadow="2"
     inkscape:window-width="1557"
     inkscape:window-height="953"
     id="namedview46"
     showgrid="false"
     inkscape:zoom="1.1435603"
     inkscape:cx="681.78165"
     inkscape:cy="342.23496"
     inkscape:window-x="192"
     inkscape:window-y="25"
     inkscape:window-maximized="0"
     inkscape:current-layer="g52" /><g
     id="g52"
     inkscape:groupmode="layer"
     inkscape:label="piechart"
     transform="matrix(1.3333333,0,0,-1.3333333,0,860)"><g
       id="g54" /><g
       id="g56" /><g
       id="g58" /><g
       id="g60" /><g
       id="g62" /><g
       id="g64" /><g
       id="g66" /><g
       id="g68" /><g
       transform="translate(0,-30)"
       id="g70"><g
         id="g72"
         clip-path="url(#clipPath76)"><path
           d="m 480,475.66 v 4.21 4.22 4.21 4.21 4.21 4.21 4.21 4.21 4.22 4.21 4.21 4.21 4.21 4.21 4.21 4.22 4.21 4.21 4.21 4.21 4.21 4.21 4.22 4.21 4.21 4.21 4.21 4.21 4.21 l -4.14,-0.07 -4.13,-0.21 -4.12,-0.35 -4.1,-0.48 -4.09,-0.63 -4.06,-0.77 -4.04,-0.9 -4,-1.04 -3.97,-1.17 -3.92,-1.31 -3.88,-1.44 -3.83,-1.57 -3.77,-1.7 -3.71,-1.83 -3.64,-1.95 -3.58,-2.07 -3.51,-2.19 -3.43,-2.31 -3.35,-2.43 -3.27,-2.53 -3.18,-2.65 -3.08,-2.75 -2.99,-2.86 -2.9,-2.95 -2.79,-3.05 -2.69,-3.15 -2.58,-3.23 -2.46,-3.32 -2.36,-3.4 -2.24,-3.47 -2.12,-3.56 -1.99,-3.62 -1.88,-3.68 -1.75,-3.75 -1.62,-3.81 -1.49,-3.86 -1.35,-3.9 -1.23,-3.95 -1.09,-3.99 -0.96,-4.02 -0.82,-4.06 -0.68,-4.08 -0.54,-4.1 -0.4,-4.11 -0.27,-4.13 -0.12,-4.13 0.02,-4.14 0.15,-4.13 0.3,-4.13 0.43,-4.11 0.58,-4.1 0.71,-4.07 0.85,-4.05 0.99,-4.01 1.12,-3.98 1.26,-3.94 1.39,-3.9 1.52,-3.85 1.65,-3.79 1.77,-3.73 1.9,-3.67 2.03,-3.61 2.15,-3.53 2.26,-3.47 2.38,-3.38 2.5,-3.3 2.6,-3.21 2.71,-3.12 2.82,-3.03 2.91,-2.93 3.02,-2.83 3.11,-2.73 3.2,-2.62 3.28,-2.51 3.37,-2.4 3.45,-2.29 3.52,-2.16 3.6,-2.05 3.66,-1.92 3.73,-1.79 3.78,-1.67 3.84,-1.54 3.88,-1.41 3.94,-1.28 3.97,-1.14 4.01,-1.01 4.05,-0.87 4.07,-0.74 4.09,-0.59 4.11,-0.46 4.12,-0.32 4.13,-0.18 4.14,-0.03 4.13,0.1 4.13,0.24 4.12,0.38 4.1,0.52 4.09,0.66 4.05,0.8 4.03,0.93 4,1.08 3.95,1.2 3.92,1.34 3.86,1.47 3.82,1.6 3.75,1.73 3.7,1.85 3.63,1.98 3.57,2.1 3.48,2.22 3.42,2.34 3.33,2.45 3.24,2.56 3.16,2.67 3.07,2.77 2.97,2.88 2.87,2.98 2.77,3.07 2.66,3.17 2.55,3.25 2.45,3.34 2.32,3.42 2.21,3.49 2.1,3.57 1.97,3.64 1.84,3.7 1.72,3.76 1.59,3.82 1.46,3.87 1.33,3.91 1.19,3.96 1.06,4 0.93,4.03 0.78,4.06 0.65,4.08 -4.17,0.59 -4.17,0.6 -4.17,0.59 -4.17,0.59 -4.17,0.59 -4.17,0.59 -4.16,0.59 -4.17,0.59 -4.17,0.59 -4.17,0.59 -4.17,0.59 -4.17,0.59 -4.17,0.59 -4.17,0.59 -4.17,0.59 -4.17,0.59 -4.17,0.6 -4.17,0.59 -4.17,0.59 -4.17,0.59 -4.17,0.59 -4.17,0.59 -4.17,0.59 -4.17,0.59 -4.17,0.59 -4.17,0.59 -4.17,0.59 -4.17,0.59 z"
           style="fill:#15616d;fill-opacity:1;fill-rule:nonzero;stroke:#ffffff;stroke-width:1.07;stroke-linecap:round;stroke-linejoin:round;stroke-miterlimit:10;stroke-dasharray:none;stroke-opacity:1"
           id="path78" /><path
           d="m 480,475.66 4.17,-0.59 4.17,-0.59 4.17,-0.59 4.17,-0.59 4.17,-0.59 4.17,-0.59 4.17,-0.59 4.17,-0.59 4.17,-0.59 4.17,-0.59 4.17,-0.59 4.17,-0.59 4.17,-0.6 4.17,-0.59 4.17,-0.59 4.17,-0.59 4.17,-0.59 4.17,-0.59 4.17,-0.59 4.17,-0.59 4.17,-0.59 4.17,-0.59 4.16,-0.59 4.17,-0.59 4.17,-0.59 4.17,-0.59 4.17,-0.59 4.17,-0.6 4.17,-0.59 0.52,4.13 0.37,4.14 0.23,4.15 0.09,4.15 -0.05,4.16 -0.2,4.15 -0.33,4.15 -0.48,4.13 -0.61,4.11 -0.76,4.08 -0.89,4.06 -1.03,4.03 -1.17,3.99 -1.3,3.95 -1.44,3.9 -1.56,3.85 -1.7,3.79 -1.83,3.74 -1.95,3.67 -2.08,3.6 -2.2,3.52 -2.31,3.46 -2.43,3.37 -2.55,3.28 -2.66,3.2 -2.76,3.11 -2.87,3 -2.97,2.91 -3.06,2.81 -3.16,2.7 -3.25,2.6 -3.33,2.48 -3.42,2.36 -3.5,2.25 -3.57,2.13 -3.64,2 -3.71,1.88 -3.77,1.75 -3.83,1.63 -3.88,1.49 -3.92,1.36 -3.98,1.22 -4.01,1.09 -4.04,0.95 -4.08,0.81 -4.1,0.68 -4.12,0.53 -4.14,0.39 -4.15,0.26 -4.16,0.11 -0.04,-4.21 -0.04,-4.21 -0.04,-4.22 -0.04,-4.21 -0.04,-4.21 -0.04,-4.21 -0.04,-4.21 -0.04,-4.21 -0.04,-4.21 -0.04,-4.21 -0.05,-4.22 -0.04,-4.21 -0.04,-4.21 -0.04,-4.21 -0.04,-4.21 -0.04,-4.21 -0.04,-4.21 -0.04,-4.21 -0.04,-4.21 -0.04,-4.22 -0.04,-4.21 -0.04,-4.21 -0.05,-4.21 -0.04,-4.21 -0.04,-4.21 -0.04,-4.21 -0.04,-4.21 -0.04,-4.22 z"
           style="fill:#78290f;fill-opacity:1;fill-rule:nonzero;stroke:#ffffff;stroke-width:1.07;stroke-linecap:round;stroke-linejoin:round;stroke-miterlimit:10;stroke-dasharray:none;stroke-opacity:1"
           id="path80" /><path
           d="m 480,475.66 0.04,4.21 0.04,4.22 0.04,4.21 0.04,4.21 0.04,4.21 0.04,4.21 0.05,4.21 0.04,4.21 0.04,4.21 0.04,4.22 0.04,4.21 0.04,4.21 0.04,4.21 0.04,4.21 0.04,4.21 0.04,4.21 0.04,4.21 0.04,4.21 0.05,4.22 0.04,4.21 0.04,4.21 0.04,4.21 0.04,4.21 0.04,4.21 0.04,4.21 0.04,4.21 0.04,4.22 0.04,4.21 0.04,4.21 H 480 v -4.21 -4.21 -4.21 -4.21 -4.21 -4.21 -4.22 -4.21 -4.21 -4.21 -4.21 -4.21 -4.21 -4.22 -4.21 -4.21 -4.21 -4.21 -4.21 -4.21 -4.22 -4.21 -4.21 -4.21 -4.21 -4.21 -4.21 -4.22 z"
           style="fill:#ffa047;fill-opacity:1;fill-rule:nonzero;stroke:#ffffff;stroke-width:1.07;stroke-linecap:round;stroke-linejoin:round;stroke-miterlimit:10;stroke-dasharray:none;stroke-opacity:1"
           id="path82" /><text
           transform="scale(1,-1)"
           style="font-variant:normal;font-weight:normal;font-size:11px;font-family:Helvetica;-inkscape-font-specification:Helvetica;writing-mode:lr-tb;fill:#000000;fill-opacity:1;fill-rule:nonzero;stroke:none"
           id="text88"
           x="419.44"
           y="-458.66"><tspan
             x="419.44 425.556 431.672"
             y="-458.66"
             sodipodi:role="line"
             id="tspan86"
             style="fill:#ffffff">73%</tspan></text><text
           transform="scale(1,-1)"
           style="font-variant:normal;font-weight:normal;font-size:11px;font-family:Helvetica;-inkscape-font-specification:Helvetica;writing-mode:lr-tb;fill:#000000;fill-opacity:1;fill-rule:nonzero;stroke:none"
           id="text94"
           x="527.54999"
           y="-524.57001"><tspan
             x="527.54999 533.66602 539.78198"
             y="-524.57001"
             sodipodi:role="line"
             id="tspan92"
             style="fill:#ffffff">27%</tspan></text><path
           d="M 481.42,606.08201 481.07,590.08"
           style="fill:none;stroke:#000000;stroke-width:1.09832;stroke-linecap:round;stroke-linejoin:round;stroke-miterlimit:10;stroke-dasharray:none;stroke-opacity:1"
           id="path96" /><text
           transform="scale(1,-1)"
           style="font-variant:normal;font-weight:normal;font-size:11px;font-family:Helvetica;-inkscape-font-specification:Helvetica;writing-mode:lr-tb;fill:#000000;fill-opacity:1;fill-rule:nonzero;stroke:none"
           id="text100"
           x="473.47"
           y="-610.83002"><tspan
             x="473.47 479.586"
             y="-610.83002"
             sodipodi:role="line"
             id="tspan98">0%</tspan></text></g></g><g
       id="g102" /><g
       id="g104" /><g
       id="g106" /><g
       id="g108" /><g
       id="g110" /><g
       id="g112" /><g
       id="g114" /><g
       id="g116" /><g
       id="g118" /><g
       id="g120" /><g
       id="g122" /><g
       id="g124" /><g
       id="g126" /><g
       id="g128" /><g
       id="g130" /><g
       id="g132" /><g
       id="g134" /><g
       id="g136" /><g
       id="g138" /><g
       id="g140" /><g
       id="g142" /><g
       id="g144" /><g
       id="g146" /><g
       id="g148" /><g
       id="g150" /><g
       id="g152" /><g
       id="g154" /><g
       id="g156" /><g
       id="g158" /><g
       id="g160" /><g
       id="g162" /><g
       id="g164" /><g
       id="g166" /><g
       id="g168" /><g
       id="g170" /><g
       id="g172" /><g
       id="g174" /><g
       id="g182" /><g
       id="g184" /><g
       id="g186" /><g
       id="g188" /><g
       id="g190" /><g
       id="g192" /><g
       id="g194" /><g
       id="g196" /><g
       id="g198" /><g
       id="g200" /><g
       id="g202"><g
         id="g204"
         clip-path="url(#clipPath208)"><path
           d="m 480,164.14 v 3.89 3.9 3.89 3.9 3.89 3.9 3.89 3.9 3.89 3.9 3.89 3.9 3.89 3.9 3.89 3.9 3.89 3.9 3.89 3.9 3.89 3.89 3.9 3.89 3.9 3.89 3.9 3.89 3.9 l -3.83,-0.07 -3.82,-0.19 -3.82,-0.33 -3.8,-0.45 -3.79,-0.58 -3.76,-0.71 -3.74,-0.84 -3.7,-0.96 -3.68,-1.09 -3.63,-1.21 -3.59,-1.34 -3.54,-1.45 -3.49,-1.58 -3.44,-1.69 -3.37,-1.81 -3.32,-1.92 -3.24,-2.03 -3.18,-2.14 -3.1,-2.25 -3.02,-2.35 -2.94,-2.46 -2.86,-2.55 -2.77,-2.64 -2.67,-2.74 -2.59,-2.83 -2.48,-2.91 -2.39,-3 -2.28,-3.08 -2.17,-3.15 -2.07,-3.22 -1.96,-3.29 -1.85,-3.36 -1.73,-3.42 -1.61,-3.47 -1.49,-3.52 -1.38,-3.58 -1.25,-3.62 -1.13,-3.66 -1,-3.69 -0.88,-3.73 -0.75,-3.76 -0.63,-3.78 -0.49,-3.79 -0.37,-3.81 -0.24,-3.83 -0.1,-3.83 0.02,-3.83 0.15,-3.82 0.28,-3.82 0.41,-3.81 0.54,-3.79 0.67,-3.77 0.8,-3.75 0.92,-3.71 1.05,-3.69 1.17,-3.64 1.3,-3.61 1.41,-3.56 1.54,-3.5 1.65,-3.46 1.78,-3.39 1.88,-3.34 2,-3.27 2.1,-3.19 2.22,-3.13 2.32,-3.05 2.42,-2.97 2.51,-2.88 2.62,-2.8 2.71,-2.7 2.8,-2.62 2.89,-2.52 2.97,-2.41 3.05,-2.32 3.12,-2.21 3.2,-2.1 3.27,-2 3.34,-1.88 3.4,-1.77 3.45,-1.65 3.51,-1.53 3.56,-1.42 3.6,-1.29 3.65,-1.17 3.69,-1.04 3.71,-0.92 3.75,-0.8 3.77,-0.66 3.79,-0.54 3.81,-0.41 3.82,-0.28 3.83,-0.15 3.83,-0.02 3.83,0.12 3.82,0.24 3.81,0.36 3.8,0.5 3.77,0.63 3.76,0.75 3.73,0.89 3.69,1 3.66,1.14 3.62,1.25 3.57,1.38 3.53,1.5 3.47,1.61 3.41,1.73 3.36,1.85 3.29,1.96 3.22,2.07 3.15,2.18 3.07,2.29 3,2.38 2.91,2.49 2.82,2.59 2.74,2.68 2.65,2.77 2.54,2.85 2.45,2.95 2.35,3.02 2.25,3.1 2.14,3.18 2.03,3.25 1.92,3.31 1.8,3.38 1.69,3.44 1.57,3.49 1.46,3.54 1.33,3.59 1.21,3.64 1.08,3.67 0.97,3.71 0.83,3.74 0.71,3.76 0.58,3.78 0.45,3.81 0.32,3.81 0.19,3.83 0.06,3.83 -0.07,3.83 -0.19,3.82 -0.33,3.82 -0.46,3.8 -0.58,3.79 -0.72,3.76 -0.84,3.73 -0.96,3.71 -1.1,3.67 -1.21,3.63 -1.34,3.59 -1.46,3.54 -1.57,3.49 -1.7,3.44 -1.81,3.37 -1.92,3.31 -2.04,3.25 -2.14,3.17 -2.25,3.1 -2.36,3.02 -2.45,2.94 -2.95,-2.55 -2.95,-2.55 -2.94,-2.54 -2.95,-2.55 -2.95,-2.55 -2.94,-2.55 -2.95,-2.54 -2.95,-2.55 -2.94,-2.55 -2.95,-2.54 -2.94,-2.55 -2.95,-2.55 -2.95,-2.55 -2.94,-2.54 -2.95,-2.55 -2.95,-2.55 -2.94,-2.55 -2.95,-2.54 -2.95,-2.55 -2.94,-2.55 -2.95,-2.54 -2.95,-2.55 -2.94,-2.55 -2.95,-2.55 -2.94,-2.54 -2.95,-2.55 -2.95,-2.55 -2.94,-2.54 -2.95,-2.55 z"
           style="fill:#15616d;fill-opacity:1;fill-rule:nonzero;stroke:#ffffff;stroke-width:1.07;stroke-linecap:round;stroke-linejoin:round;stroke-miterlimit:10;stroke-dasharray:none;stroke-opacity:1"
           id="path210" /><path
           d="m 480,164.14 2.95,2.55 2.94,2.54 2.95,2.55 2.95,2.55 2.94,2.54 2.95,2.55 2.94,2.55 2.95,2.55 2.95,2.54 2.94,2.55 2.95,2.55 2.95,2.54 2.94,2.55 2.95,2.55 2.95,2.55 2.94,2.54 2.95,2.55 2.95,2.55 2.94,2.55 2.95,2.54 2.94,2.55 2.95,2.55 2.95,2.54 2.94,2.55 2.95,2.55 2.95,2.55 2.94,2.54 2.95,2.55 2.95,2.55 -2.76,3.07 -2.86,2.96 -2.97,2.86 -3.07,2.75 -3.16,2.64 -3.27,2.51 -3.35,2.4 -3.44,2.27 -3.52,2.15 -3.59,2.02 -1.84,-3.43 -1.85,-3.44 -1.84,-3.43 -1.84,-3.43 -1.85,-3.43 -1.84,-3.43 -1.84,-3.43 -1.85,-3.43 -1.84,-3.43 -1.84,-3.43 -1.85,-3.43 -1.84,-3.44 -1.85,-3.43 -1.84,-3.43 -1.84,-3.43 -1.85,-3.43 -1.84,-3.43 -1.84,-3.43 -1.85,-3.43 -1.84,-3.43 -1.84,-3.43 -1.85,-3.44 -1.84,-3.43 -1.84,-3.43 -1.85,-3.43 -1.84,-3.43 -1.84,-3.43 -1.85,-3.43 -1.84,-3.43 z"
           style="fill:#78290f;fill-opacity:1;fill-rule:nonzero;stroke:#ffffff;stroke-width:1.07;stroke-linecap:round;stroke-linejoin:round;stroke-miterlimit:10;stroke-dasharray:none;stroke-opacity:1"
           id="path212" /><path
           d="m 480,164.14 1.84,3.43 1.85,3.43 1.84,3.43 1.84,3.43 1.85,3.43 1.84,3.43 1.84,3.43 1.85,3.44 1.84,3.43 1.84,3.43 1.85,3.43 1.84,3.43 1.84,3.43 1.85,3.43 1.84,3.43 1.84,3.43 1.85,3.43 1.84,3.44 1.85,3.43 1.84,3.43 1.84,3.43 1.85,3.43 1.84,3.43 1.84,3.43 1.85,3.43 1.84,3.43 1.84,3.43 1.85,3.44 1.84,3.43 -3.54,1.82 -3.6,1.69 -3.65,1.57 -3.71,1.44 -3.76,1.3 -3.8,1.18 -3.84,1.03 -3.87,0.91 -3.9,0.76 -3.93,0.63 -3.95,0.49 -3.96,0.35 -3.97,0.21 -3.98,0.07 v -3.9 -3.89 -3.9 -3.89 -3.9 -3.89 -3.9 -3.89 -3.89 -3.9 -3.89 -3.9 -3.89 -3.9 -3.89 -3.9 -3.89 -3.9 -3.89 -3.9 -3.89 -3.9 -3.89 -3.9 -3.89 -3.9 -3.89 -3.9 -3.89 z"
           style="fill:#ffa047;fill-opacity:1;fill-rule:nonzero;stroke:#ffffff;stroke-width:1.07;stroke-linecap:round;stroke-linejoin:round;stroke-miterlimit:10;stroke-dasharray:none;stroke-opacity:1"
           id="path214" /><text
           transform="scale(1,-1)"
           style="font-variant:normal;font-weight:normal;font-size:11px;font-family:Helvetica;-inkscape-font-specification:Helvetica;writing-mode:lr-tb;fill:#000000;fill-opacity:1;fill-rule:nonzero;stroke:none"
           id="text220"
           x="414.37"
           y="-154.33"><tspan
             x="414.37 420.48599 426.60199 429.66 435.776"
             y="-154.33"
             sodipodi:role="line"
             id="tspan218"
             style="fill:#ffffff">86.3%</tspan></text><text
           transform="matrix(0.99893653,0.0461066,0.0461066,-0.99893653,0,0)"
           style="font-variant:normal;font-weight:normal;font-size:11px;font-family:Helvetica;-inkscape-font-specification:Helvetica;writing-mode:lr-tb;fill:#000000;fill-opacity:1;fill-rule:nonzero;stroke:none"
           id="text226"
           x="539.22534"
           y="-211.65184"><tspan
             x="539.22534 545.34131 548.39935 554.51532"
             y="-211.65184"
             sodipodi:role="line"
             id="tspan224"
             style="fill:#ffffff">5.8%</tspan></text><text
           transform="scale(1,-1)"
           style="font-variant:normal;font-weight:normal;font-size:11px;font-family:Helvetica;-inkscape-font-specification:Helvetica;writing-mode:lr-tb;fill:#000000;fill-opacity:1;fill-rule:nonzero;stroke:none"
           id="text232"
           x="497.59998"
           y="-256.19"><tspan
             x="497.59998 503.716 506.77399 512.89001"
             y="-256.19"
             sodipodi:role="line"
             id="tspan230"
             style="fill:#ffffff">7.8%</tspan></text></g></g><g
       id="g234" /><g
       id="g236" /><g
       id="g238" /><g
       id="g240" /><g
       id="g242" /><g
       id="g244" /><g
       id="g246" /><g
       id="g248" /><g
       id="g250" /><g
       id="g252" /><g
       id="g254" /><g
       id="g256" /><g
       id="g258" /><g
       id="g260" /><g
       id="g262" /><g
       id="g264" /><g
       id="g266" /><g
       id="g268" /><g
       id="g270" /><g
       id="g272" /><g
       id="g274" /><g
       id="g276" /><g
       id="g278" /><g
       id="g280" /><g
       id="g282" /><g
       id="g284" /><g
       id="g286" /><g
       id="g288" /><g
       id="g290" /><g
       id="g292" /><g
       id="g294" /><g
       id="g296" /><g
       id="g298" /><g
       id="g300" /><g
       id="g302" /><g
       id="g304" /><g
       id="g306" /><g
       id="g308" /><g
       id="g310" /><g
       id="g312" /><g
       id="g314" /><g
       id="g316" /><g
       id="g318" /><g
       id="g320" /><g
       id="g322" /><g
       id="g324" /><g
       id="g326" /><g
       id="g328" /><g
       id="g330"
       transform="translate(66,24)"><path
         d="M 371.84,0.71 H 387.7 V 16.57 H 371.84 Z"
         style="fill:#15616d;fill-opacity:1;fill-rule:nonzero;stroke:#ffffff;stroke-width:1.07;stroke-linecap:square;stroke-linejoin:miter;stroke-miterlimit:10;stroke-dasharray:none;stroke-opacity:1"
         id="path332" /></g><g
       id="g334" /><g
       id="g336" /><g
       id="g338" /><g
       id="g340"
       transform="translate(-54,3)"><path
         d="m 451.6,0.71 h 15.86 V 16.57 H 451.6 Z"
         style="fill:#78290f;fill-opacity:1;fill-rule:nonzero;stroke:#ffffff;stroke-width:1.07;stroke-linecap:square;stroke-linejoin:miter;stroke-miterlimit:10;stroke-dasharray:none;stroke-opacity:1"
         id="path342" /></g><g
       id="g344" /><g
       id="g346" /><g
       id="g348" /><g
       id="g350"
       transform="translate(-31.5,4.5)"><path
         d="M 525.54,0.71 H 541.4 V 16.57 H 525.54 Z"
         style="fill:#ffa047;fill-opacity:1;fill-rule:nonzero;stroke:#ffffff;stroke-width:1.07;stroke-linecap:square;stroke-linejoin:miter;stroke-miterlimit:10;stroke-dasharray:none;stroke-opacity:1"
         id="path352" /></g><g
       id="g354" /><g
       id="g356" /><g
       id="g358" /><g
       id="g360"
       transform="translate(21,39)" /><g
       id="g366" /><g
       id="g368" /><g
       id="g370" /><g
       id="g372" /><g
       id="g380" /><g
       id="g382" /><g
       id="g384" /><g
       id="g386" /><g
       id="g394" /><g
       id="g396" /><g
       id="g398" /><g
       id="g400" /><g
       id="g402" /><g
       id="g404" /><g
       id="g412" /><g
       id="g414" /><g
       id="g416" /><g
       id="g418" /><g
       id="g420" /><g
       id="g422" /><g
       id="g424" /><g
       id="g426" /><g
       id="g428" /><g
       id="g430" /><g
       id="g432" /><g
       id="g434" /><g
       id="g436" /><g
       id="g438" /><g
       id="g440" /><g
       id="g442" /><g
       id="g444" /><g
       id="g446" /><g
       id="g448" /><g
       id="g450" /><g
       id="g452" /><g
       id="g454" /><g
       id="g456" /><g
       id="g458" /><g
       id="g460" /><g
       id="g462" /><g
       id="g464" /><g
       id="g466" /><g
       id="g468" /><g
       id="g470" /><g
       id="g472" /><g
       id="g474" /><g
       id="g476" /><g
       id="g478" /><g
       id="g480" /><g
       id="g482" /><g
       id="g484" /><g
       id="g486" /><g
       id="g488" /><g
       id="g490" /><g
       id="g492" /><g
       id="g494" /><text
       xml:space="preserve"
       style="font-size:9px;line-height:1.25;font-family:Helvetica;-inkscape-font-specification:Helvetica;letter-spacing:0px;word-spacing:0px;stroke-width:0.75"
       x="418.03159"
       y="-8.8430357"
       id="text506"
       transform="scale(1,-1)"><tspan
         sodipodi:role="line"
         id="tspan504"
         x="418.03159"
         y="-8.8430357"
         style="stroke-width:0.75">Sum diterpenoids</tspan></text><text
       xml:space="preserve"
       style="font-size:9px;line-height:1.25;font-family:Helvetica;-inkscape-font-specification:Helvetica;letter-spacing:0px;word-spacing:0px;stroke-width:0.75"
       x="515.68066"
       y="-9.6720457"
       id="text510"
       transform="scale(1,-1)"><tspan
         sodipodi:role="line"
         id="tspan508"
         x="515.68066"
         y="-9.6720457"
         style="stroke-width:0.75">Sum triterpenoids</tspan></text><text
       style="font-style:normal;font-variant:normal;font-weight:normal;font-stretch:normal;font-size:9px;font-family:Helvetica;-inkscape-font-specification:Helvetica"
       id="text506-4"
       y="-29.425835"
       x="455.56277"
       xml:space="preserve"
       transform="scale(1,-1)"><tspan
         style="font-style:normal;font-variant:normal;font-weight:normal;font-stretch:normal;font-size:9px;font-family:Helvetica;-inkscape-font-specification:Helvetica;baseline-shift:baseline;stroke-width:0.75"
         y="-29.425835"
         x="455.56277"
         id="tspan504-3"
         sodipodi:role="line">Sum <tspan
   style="font-style:oblique;font-variant:normal;font-weight:normal;font-stretch:normal;font-size:9px;font-family:Helvetica;-inkscape-font-specification:'Helvetica Oblique';baseline-shift:baseline"
   id="tspan534">n</tspan>-alkanes C<tspan
   id="tspan231"
   style="font-style:normal;font-variant:normal;font-weight:normal;font-stretch:normal;font-size:9px;font-family:Helvetica;-inkscape-font-specification:Helvetica;baseline-shift:sub">29-31</tspan> (odd)</tspan></text><text
       xml:space="preserve"
       style="font-size:16px;line-height:1.25;font-family:Helvetica;-inkscape-font-specification:Helvetica;letter-spacing:0px;word-spacing:0px;stroke-width:0.75"
       x="328.83691"
       y="-602.14282"
       id="text234"
       transform="scale(1,-1)"><tspan
         sodipodi:role="line"
         id="tspan232"
         x="328.83691"
         y="-602.14282"
         style="font-size:16px;stroke-width:0.75">A</tspan></text><text
       id="text234-9"
       y="-286.98438"
       x="341.42111"
       style="font-size:16.0000004px;line-height:1.25;font-family:Helvetica;-inkscape-font-specification:Helvetica;letter-spacing:0px;word-spacing:0px;stroke-width:0.75;"
       xml:space="preserve"
       transform="scale(1,-1)"><tspan
         style="stroke-width:0.75;font-size:16.0000004px;"
         y="-286.98438"
         x="341.42111"
         id="tspan232-9"
         sodipodi:role="line">B</tspan></text><text
       transform="scale(1,-1)"
       id="text238"
       y="-289.73978"
       x="417.5007"
       style="font-size:20px;line-height:1.25;font-family:Helvetica;-inkscape-font-specification:Helvetica;letter-spacing:0px;word-spacing:0px;stroke-width:0.75"
       xml:space="preserve"><tspan
         style="font-size:20px;stroke-width:0.75"
         y="-289.73978"
         x="417.5007"
         id="tspan236"
         sodipodi:role="line">Bighorn Basin</tspan></text><text
       transform="scale(1,-1)"
       id="text242"
       y="-602.45831"
       x="420.61703"
       style="font-size:20px;line-height:1.25;font-family:Helvetica;-inkscape-font-specification:Helvetica;letter-spacing:0px;word-spacing:0px;stroke-width:0.75"
       xml:space="preserve"><tspan
         style="font-size:20px;stroke-width:0.75"
         y="-602.45831"
         x="420.61703"
         id="tspan240"
         sodipodi:role="line">Hanna Basin</tspan></text></g></svg>
